<svg xmlns="http://www.w3.org/2000/svg" xmlns:xlink="http://www.w3.org/1999/xlink" width="500" zoomAndPan="magnify" viewBox="0 0 375 374.999991" height="500" preserveAspectRatio="xMidYMid meet" version="1.0"><defs><clipPath id="cc4426016e"><path d="M 11.632812 229 L 99 229 L 99 275 L 11.632812 275 Z M 11.632812 229 " clip-rule="nonzero"/></clipPath><clipPath id="4c72192fb4"><path d="M 100 54 L 363.382812 54 L 363.382812 360.257812 L 100 360.257812 Z M 100 54 " clip-rule="nonzero"/></clipPath><clipPath id="0e084336f5"><path d="M 259 14.507812 L 330 14.507812 L 330 85 L 259 85 Z M 259 14.507812 " clip-rule="nonzero"/></clipPath></defs><g clip-path="url(#cc4426016e)"><path fill="#c13c52" d="M 30.753906 229.105469 L 11.769531 260.023438 C 47.160156 254.429688 75.949219 259.21875 98.089844 274.417969 C 82.003906 253.054688 59.546875 237.941406 30.726562 229.105469 Z M 30.753906 229.105469 " fill-opacity="1" fill-rule="evenodd"/></g><path fill="#03214a" d="M 15.125 212.902344 C 56.277344 218.4375 88.226562 238.65625 110.9375 273.53125 C 105.261719 238.3125 87.421875 210.265625 57.367188 189.332031 Z M 15.125 212.902344 " fill-opacity="1" fill-rule="evenodd"/><path fill="#c13c52" d="M 35.945312 155.03125 C 92.066406 191.222656 122.46875 241.039062 127.171875 304.414062 C 136.546875 254.429688 122.554688 209.636719 85.242188 170.03125 C 116.5 161.054688 140.589844 139.832031 157.484375 106.363281 C 213.203125 203.410156 195.453125 280.957031 104.226562 339.03125 C 219.773438 298.996094 237.121094 176.941406 156.277344 68.394531 C 138.269531 128.707031 98.175781 157.585938 35.972656 155.03125 Z M 35.945312 155.03125 " fill-opacity="1" fill-rule="evenodd"/><g clip-path="url(#4c72192fb4)"><path fill="#03214a" d="M 174.34375 54.945312 C 270.589844 176.742188 239.988281 314.710938 100.871094 360.480469 C 246.730469 352.050781 334.167969 258.875 363.25 80.957031 C 324.875 132.976562 261.898438 124.316406 174.34375 54.945312 Z M 174.34375 54.945312 " fill-opacity="1" fill-rule="evenodd"/></g><g clip-path="url(#0e084336f5)"><path fill="#03214a" d="M 294.648438 84.914062 C 314.035156 84.914062 329.867188 69.113281 329.867188 49.695312 C 329.867188 30.3125 314.066406 14.480469 294.648438 14.480469 C 275.265625 14.480469 259.433594 30.28125 259.433594 49.695312 C 259.433594 69.082031 275.265625 84.914062 294.648438 84.914062 Z M 294.648438 84.914062 " fill-opacity="1" fill-rule="evenodd"/></g><path fill="#c13c52" d="M 158.574219 198.851562 C 159.71875 200.859375 159.117188 202.839844 156.707031 204.757812 L 152.207031 196.929688 C 154.042969 196.613281 155.445312 196.613281 156.363281 196.902344 C 157.28125 197.21875 158.027344 197.847656 158.601562 198.824219 Z M 141.335938 190.277344 C 139.472656 190.59375 138.125 190.59375 137.234375 190.277344 C 136.347656 189.933594 135.660156 189.359375 135.171875 188.5 C 134.65625 187.609375 134.511719 186.664062 134.769531 185.6875 C 135.027344 184.714844 135.746094 183.738281 137.007812 182.761719 L 141.367188 190.304688 Z M 166.488281 193.71875 C 164.679688 190.59375 162.273438 188.640625 159.261719 187.867188 C 156.25 187.09375 152.292969 187.351562 147.386719 188.640625 L 142.511719 180.210938 C 143.859375 179.808594 145.292969 179.582031 146.785156 179.496094 C 148.277344 179.40625 149.796875 179.40625 151.347656 179.523438 L 151.316406 170.832031 C 149.167969 170.632812 147.042969 170.691406 144.949219 170.976562 C 142.855469 171.261719 140.734375 171.835938 138.527344 172.699219 L 136.605469 169.34375 L 130.785156 172.699219 L 132.648438 175.9375 C 131.011719 177.144531 129.636719 178.433594 128.519531 179.867188 C 127.398438 181.273438 126.597656 182.761719 126.136719 184.3125 C 125.648438 185.859375 125.507812 187.410156 125.679688 189.015625 C 125.851562 190.59375 126.394531 192.167969 127.285156 193.746094 C 128.230469 195.382812 129.320312 196.671875 130.527344 197.648438 C 131.757812 198.59375 133.136719 199.253906 134.65625 199.625 C 136.175781 200 137.894531 200.085938 139.789062 199.882812 C 141.679688 199.710938 143.804688 199.3125 146.15625 198.707031 L 151.289062 207.597656 C 149.425781 208.230469 147.558594 208.574219 145.667969 208.632812 C 143.804688 208.6875 141.765625 208.601562 139.558594 208.316406 L 138.871094 217.207031 C 141.539062 217.550781 144.289062 217.519531 147.042969 217.121094 C 149.824219 216.71875 152.523438 216 155.101562 214.882812 L 158.371094 220.53125 L 164.195312 217.175781 L 161.011719 211.640625 C 162.703125 210.4375 164.078125 209.089844 165.199219 207.65625 C 166.316406 206.222656 167.089844 204.730469 167.578125 203.183594 C 168.066406 201.632812 168.207031 200.085938 168.066406 198.480469 C 167.921875 196.875 167.375 195.296875 166.488281 193.746094 Z M 166.488281 193.71875 " fill-opacity="1" fill-rule="evenodd"/></svg>