<svg xmlns="http://www.w3.org/2000/svg" xmlns:xlink="http://www.w3.org/1999/xlink" width="500" zoomAndPan="magnify" viewBox="0 0 375 374.999991" height="500" preserveAspectRatio="xMidYMid meet" version="1.0"><defs><clipPath id="9540d27e41"><path d="M 97.570312 168 L 142 168 L 142 192 L 97.570312 192 Z M 97.570312 168 " clip-rule="nonzero"/></clipPath><clipPath id="e36dcae1b3"><path d="M 143 79 L 277.570312 79 L 277.570312 236 L 143 236 Z M 143 79 " clip-rule="nonzero"/></clipPath><clipPath id="2237d46149"><path d="M 224 59.082031 L 261 59.082031 L 261 96 L 224 96 Z M 224 59.082031 " clip-rule="nonzero"/></clipPath></defs><rect x="-37.5" width="450" fill="#ffffff" y="-37.499999" height="449.999989" fill-opacity="1"/><rect x="-37.5" width="450" fill="#ffffff" y="-37.499999" height="449.999989" fill-opacity="1"/><g clip-path="url(#9540d27e41)"><path fill="#c13c52" d="M 107.347656 168.816406 L 97.636719 184.625 C 115.734375 181.765625 130.457031 184.214844 141.78125 191.988281 C 133.554688 181.0625 122.070312 173.335938 107.332031 168.816406 Z M 107.347656 168.816406 " fill-opacity="1" fill-rule="evenodd"/></g><path fill="#03214a" d="M 99.355469 160.53125 C 120.398438 163.363281 136.734375 173.703125 148.351562 191.535156 C 145.445312 173.527344 136.324219 159.183594 120.957031 148.476562 Z M 99.355469 160.53125 " fill-opacity="1" fill-rule="evenodd"/><path fill="#c13c52" d="M 110 130.9375 C 138.699219 149.445312 154.246094 174.917969 156.648438 207.328125 C 161.445312 181.765625 154.289062 158.859375 135.210938 138.609375 C 151.195312 134.019531 163.511719 123.164062 172.152344 106.050781 C 200.644531 155.679688 191.566406 195.332031 144.917969 225.027344 C 204.003906 204.554688 212.875 142.140625 171.535156 86.636719 C 162.324219 117.476562 141.824219 132.242188 110.015625 130.9375 Z M 110 130.9375 " fill-opacity="1" fill-rule="evenodd"/><g clip-path="url(#e36dcae1b3)"><path fill="#03214a" d="M 180.773438 79.757812 C 229.988281 142.039062 214.34375 212.59375 143.203125 236 C 217.789062 231.6875 262.503906 184.039062 277.371094 93.058594 C 257.75 119.660156 225.546875 115.230469 180.773438 79.757812 Z M 180.773438 79.757812 " fill-opacity="1" fill-rule="evenodd"/></g><g clip-path="url(#2237d46149)"><path fill="#03214a" d="M 242.292969 95.082031 C 252.207031 95.082031 260.300781 87.003906 260.300781 77.074219 C 260.300781 67.160156 252.222656 59.066406 242.292969 59.066406 C 232.378906 59.066406 224.285156 67.144531 224.285156 77.074219 C 224.285156 86.988281 232.378906 95.082031 242.292969 95.082031 Z M 242.292969 95.082031 " fill-opacity="1" fill-rule="evenodd"/></g><path fill="#c13c52" d="M 172.707031 153.347656 C 173.296875 154.371094 172.988281 155.386719 171.753906 156.367188 L 169.453125 152.363281 C 170.390625 152.203125 171.109375 152.203125 171.578125 152.347656 C 172.046875 152.511719 172.429688 152.832031 172.722656 153.332031 Z M 163.894531 148.960938 C 162.941406 149.121094 162.253906 149.121094 161.796875 148.960938 C 161.34375 148.785156 160.992188 148.492188 160.742188 148.050781 C 160.476562 147.597656 160.40625 147.113281 160.535156 146.613281 C 160.667969 146.117188 161.035156 145.617188 161.679688 145.121094 L 163.910156 148.976562 Z M 176.757812 150.722656 C 175.832031 149.121094 174.601562 148.125 173.058594 147.730469 C 171.519531 147.332031 169.496094 147.464844 166.988281 148.125 L 164.496094 143.8125 C 165.183594 143.609375 165.917969 143.492188 166.679688 143.449219 C 167.445312 143.402344 168.222656 143.402344 169.011719 143.460938 L 169 139.019531 C 167.898438 138.917969 166.8125 138.945312 165.742188 139.09375 C 164.671875 139.238281 163.585938 139.53125 162.457031 139.972656 L 161.476562 138.257812 L 158.5 139.972656 L 159.453125 141.628906 C 158.617188 142.246094 157.910156 142.90625 157.339844 143.636719 C 156.769531 144.355469 156.355469 145.121094 156.121094 145.910156 C 155.875 146.703125 155.800781 147.496094 155.886719 148.316406 C 155.976562 149.121094 156.253906 149.929688 156.710938 150.734375 C 157.191406 151.570312 157.75 152.230469 158.367188 152.730469 C 158.996094 153.214844 159.699219 153.550781 160.476562 153.742188 C 161.253906 153.933594 162.136719 153.976562 163.101562 153.875 C 164.070312 153.785156 165.15625 153.582031 166.359375 153.273438 L 168.984375 157.820312 C 168.03125 158.140625 167.078125 158.316406 166.109375 158.347656 C 165.15625 158.375 164.113281 158.332031 162.984375 158.1875 L 162.632812 162.730469 C 163.996094 162.90625 165.40625 162.894531 166.8125 162.6875 C 168.234375 162.484375 169.613281 162.117188 170.933594 161.542969 L 172.605469 164.433594 L 175.582031 162.71875 L 173.953125 159.886719 C 174.820312 159.269531 175.523438 158.582031 176.097656 157.847656 C 176.667969 157.117188 177.0625 156.351562 177.3125 155.5625 C 177.5625 154.769531 177.636719 153.976562 177.5625 153.15625 C 177.488281 152.335938 177.210938 151.527344 176.757812 150.734375 Z M 176.757812 150.722656 " fill-opacity="1" fill-rule="evenodd"/><path fill="#03214a" d="M 114.011719 256.125 L 114.011719 263.28125 L 101.480469 263.28125 L 101.480469 270.40625 L 113.058594 270.40625 L 113.058594 277.5625 L 101.480469 277.5625 L 101.480469 291.921875 L 93.324219 291.921875 L 93.324219 256.125 Z M 114.011719 256.125 " fill-opacity="1" fill-rule="nonzero"/><path fill="#03214a" d="M 117.792969 257.25 C 118.6875 256.355469 119.753906 255.90625 120.996094 255.90625 C 122.246094 255.90625 123.316406 256.355469 124.214844 257.25 C 125.109375 258.148438 125.558594 259.21875 125.558594 260.46875 C 125.558594 261.710938 125.109375 262.777344 124.214844 263.671875 C 123.316406 264.570312 122.246094 265.015625 120.996094 265.015625 C 119.753906 265.015625 118.6875 264.570312 117.792969 263.671875 C 116.894531 262.777344 116.449219 261.710938 116.449219 260.46875 C 116.449219 259.21875 116.894531 258.148438 117.792969 257.25 Z M 117.058594 269.65625 L 117.058594 291.921875 L 124.730469 291.921875 L 124.730469 269.65625 Z M 117.058594 269.65625 " fill-opacity="1" fill-rule="nonzero"/><path fill="#03214a" d="M 129.292969 291.921875 L 129.292969 269.65625 L 136.964844 269.65625 L 136.964844 272 L 137.058594 272 C 139.046875 270.011719 141.171875 269.015625 143.433594 269.015625 C 144.527344 269.015625 145.613281 269.164062 146.699219 269.453125 C 147.792969 269.734375 148.832031 270.183594 149.824219 270.796875 C 150.824219 271.402344 151.636719 272.261719 152.261719 273.375 C 152.886719 274.492188 153.199219 275.78125 153.199219 277.25 L 153.199219 291.921875 L 145.511719 291.921875 L 145.511719 279.34375 C 145.511719 278.1875 145.140625 277.179688 144.402344 276.3125 C 143.671875 275.4375 142.714844 275 141.527344 275 C 140.371094 275 139.316406 275.449219 138.371094 276.34375 C 137.433594 277.242188 136.964844 278.242188 136.964844 279.34375 L 136.964844 291.921875 Z M 129.292969 291.921875 " fill-opacity="1" fill-rule="nonzero"/><path fill="#03214a" d="M 154.84375 263.28125 L 154.84375 256.125 L 180.015625 256.125 L 180.015625 263.28125 L 171.515625 263.28125 L 171.515625 291.921875 L 163.359375 291.921875 L 163.359375 263.28125 Z M 154.84375 263.28125 " fill-opacity="1" fill-rule="nonzero"/><path fill="#03214a" d="M 182.101562 291.921875 L 182.101562 269.65625 L 189.773438 269.65625 L 189.773438 272.875 L 189.867188 272.875 C 189.917969 272.761719 190.007812 272.617188 190.132812 272.4375 C 190.265625 272.261719 190.554688 271.960938 190.992188 271.53125 C 191.429688 271.09375 191.890625 270.703125 192.382812 270.359375 C 192.871094 270.015625 193.507812 269.710938 194.289062 269.4375 C 195.070312 269.15625 195.867188 269.015625 196.679688 269.015625 C 197.511719 269.015625 198.335938 269.132812 199.148438 269.359375 C 199.960938 269.589844 200.554688 269.820312 200.929688 270.046875 L 201.539062 270.40625 L 198.320312 276.90625 C 197.371094 276.09375 196.042969 275.6875 194.335938 275.6875 C 193.40625 275.6875 192.609375 275.890625 191.945312 276.296875 C 191.277344 276.703125 190.804688 277.199219 190.523438 277.78125 C 190.25 278.355469 190.058594 278.84375 189.945312 279.25 C 189.828125 279.65625 189.773438 279.976562 189.773438 280.203125 L 189.773438 291.921875 Z M 182.101562 291.921875 " fill-opacity="1" fill-rule="nonzero"/><path fill="#03214a" d="M 204.355469 289.171875 C 202.269531 286.902344 201.230469 284.121094 201.230469 280.828125 C 201.230469 277.527344 202.269531 274.734375 204.355469 272.453125 C 206.4375 270.164062 209.082031 269.015625 212.292969 269.015625 C 215.238281 269.015625 217.671875 269.9375 219.589844 271.78125 L 219.589844 269.65625 L 227.261719 269.65625 L 227.261719 291.921875 L 219.667969 291.921875 L 219.667969 289.40625 L 219.589844 289.40625 C 217.671875 291.523438 215.238281 292.578125 212.292969 292.578125 C 209.082031 292.578125 206.4375 291.445312 204.355469 289.171875 Z M 210.886719 277.046875 C 209.886719 278.027344 209.386719 279.28125 209.386719 280.8125 C 209.386719 282.34375 209.859375 283.59375 210.808594 284.5625 C 211.765625 285.53125 213.027344 286.015625 214.589844 286.015625 C 216.097656 286.015625 217.339844 285.527344 218.308594 284.546875 C 219.277344 283.558594 219.761719 282.3125 219.761719 280.8125 C 219.761719 279.28125 219.261719 278.027344 218.261719 277.046875 C 217.261719 276.058594 216.035156 275.5625 214.589844 275.5625 C 213.121094 275.5625 211.886719 276.058594 210.886719 277.046875 Z M 210.886719 277.046875 " fill-opacity="1" fill-rule="nonzero"/><path fill="#03214a" d="M 243.453125 275.296875 C 242.003906 275.296875 240.757812 275.835938 239.71875 276.90625 C 238.675781 277.980469 238.15625 279.265625 238.15625 280.765625 C 238.15625 282.296875 238.675781 283.601562 239.71875 284.671875 C 240.757812 285.746094 242.003906 286.28125 243.453125 286.28125 C 244.140625 286.28125 244.796875 286.199219 245.421875 286.03125 C 246.046875 285.855469 246.503906 285.679688 246.796875 285.5 L 247.1875 285.234375 L 249.78125 290.578125 C 249.582031 290.726562 249.300781 290.90625 248.9375 291.125 C 248.570312 291.335938 247.742188 291.625 246.453125 292 C 245.171875 292.382812 243.796875 292.578125 242.328125 292.578125 C 239.054688 292.578125 236.179688 291.429688 233.703125 289.125 C 231.234375 286.824219 230 284.070312 230 280.859375 C 230 277.621094 231.234375 274.839844 233.703125 272.515625 C 236.179688 270.183594 239.054688 269.015625 242.328125 269.015625 C 243.796875 269.015625 245.148438 269.1875 246.390625 269.53125 C 247.640625 269.875 248.523438 270.226562 249.046875 270.578125 L 249.78125 271.09375 L 247.1875 276.34375 C 246.226562 275.648438 244.984375 275.296875 243.453125 275.296875 Z M 243.453125 275.296875 " fill-opacity="1" fill-rule="nonzero"/><path fill="#03214a" d="M 277.46875 269.65625 L 266.875 280.296875 L 278.515625 291.921875 L 268.609375 291.921875 L 259.71875 283.03125 L 259.71875 291.921875 L 252.046875 291.921875 L 252.046875 254.609375 L 259.71875 254.609375 L 259.71875 277.421875 L 267.484375 269.65625 Z M 277.46875 269.65625 " fill-opacity="1" fill-rule="nonzero"/></svg>