<svg xmlns="http://www.w3.org/2000/svg" xmlns:xlink="http://www.w3.org/1999/xlink" width="375px" zoomAndPan="magnify" viewBox="0 0 375 374.999991" height="375px" preserveAspectRatio="xMidYMid meet" version="1.0"><defs><g/><clipPath id="0e2c57f6fb"><path d="M 97.570312 168 L 142 168 L 142 192 L 97.570312 192 Z M 97.570312 168 " clip-rule="nonzero"/></clipPath><clipPath id="daf80afe4b"><path d="M 143 79 L 277.570312 79 L 277.570312 236 L 143 236 Z M 143 79 " clip-rule="nonzero"/></clipPath><clipPath id="2aad3c59db"><path d="M 224 59.082031 L 261 59.082031 L 261 96 L 224 96 Z M 224 59.082031 " clip-rule="nonzero"/></clipPath></defs><rect x="-37.5" width="450" fill="#FFFFFF" y="-37.499999" height="449.999989" fill-opacity="1"/><rect x="-37.5" width="450" fill="#FFFFFF" y="-37.499999" height="449.999989" fill-opacity="1"/><g clip-path="url(#0e2c57f6fb)"><path fill="#C13C52" d="M 107.347656 168.816406 L 97.636719 184.625 C 115.734375 181.765625 130.457031 184.214844 141.78125 191.988281 C 133.554688 181.0625 122.070312 173.335938 107.332031 168.816406 Z M 107.347656 168.816406 " fill-opacity="1" fill-rule="evenodd"/></g><path fill="#03214A" d="M 99.355469 160.53125 C 120.398438 163.363281 136.734375 173.703125 148.351562 191.535156 C 145.445312 173.527344 136.324219 159.183594 120.957031 148.476562 Z M 99.355469 160.53125 " fill-opacity="1" fill-rule="evenodd"/><path fill="#C13C52" d="M 110 130.9375 C 138.699219 149.445312 154.246094 174.917969 156.648438 207.328125 C 161.445312 181.765625 154.289062 158.859375 135.210938 138.609375 C 151.195312 134.019531 163.511719 123.164062 172.152344 106.050781 C 200.644531 155.679688 191.566406 195.332031 144.917969 225.027344 C 204.003906 204.554688 212.875 142.140625 171.535156 86.636719 C 162.324219 117.476562 141.824219 132.242188 110.015625 130.9375 Z M 110 130.9375 " fill-opacity="1" fill-rule="evenodd"/><g clip-path="url(#daf80afe4b)"><path fill="#03214A" d="M 180.773438 79.757812 C 229.988281 142.039062 214.34375 212.59375 143.203125 236 C 217.789062 231.6875 262.503906 184.039062 277.371094 93.058594 C 257.75 119.660156 225.546875 115.230469 180.773438 79.757812 Z M 180.773438 79.757812 " fill-opacity="1" fill-rule="evenodd"/></g><g clip-path="url(#2aad3c59db)"><path fill="#03214A" d="M 242.292969 95.082031 C 252.207031 95.082031 260.300781 87.003906 260.300781 77.074219 C 260.300781 67.160156 252.222656 59.066406 242.292969 59.066406 C 232.378906 59.066406 224.285156 67.144531 224.285156 77.074219 C 224.285156 86.988281 232.378906 95.082031 242.292969 95.082031 Z M 242.292969 95.082031 " fill-opacity="1" fill-rule="evenodd"/></g><path fill="#C13C52" d="M 172.707031 153.347656 C 173.296875 154.371094 172.988281 155.386719 171.753906 156.367188 L 169.453125 152.363281 C 170.390625 152.203125 171.109375 152.203125 171.578125 152.347656 C 172.046875 152.511719 172.429688 152.832031 172.722656 153.332031 Z M 163.894531 148.960938 C 162.941406 149.121094 162.253906 149.121094 161.796875 148.960938 C 161.34375 148.785156 160.992188 148.492188 160.742188 148.050781 C 160.476562 147.597656 160.40625 147.113281 160.535156 146.613281 C 160.667969 146.117188 161.035156 145.617188 161.679688 145.121094 L 163.910156 148.976562 Z M 176.757812 150.722656 C 175.832031 149.121094 174.601562 148.125 173.058594 147.730469 C 171.519531 147.332031 169.496094 147.464844 166.988281 148.125 L 164.496094 143.8125 C 165.183594 143.609375 165.917969 143.492188 166.679688 143.449219 C 167.445312 143.402344 168.222656 143.402344 169.011719 143.460938 L 169 139.019531 C 167.898438 138.917969 166.8125 138.945312 165.742188 139.09375 C 164.671875 139.238281 163.585938 139.53125 162.457031 139.972656 L 161.476562 138.257812 L 158.5 139.972656 L 159.453125 141.628906 C 158.617188 142.246094 157.910156 142.90625 157.339844 143.636719 C 156.769531 144.355469 156.355469 145.121094 156.121094 145.910156 C 155.875 146.703125 155.800781 147.496094 155.886719 148.316406 C 155.976562 149.121094 156.253906 149.929688 156.710938 150.734375 C 157.191406 151.570312 157.75 152.230469 158.367188 152.730469 C 158.996094 153.214844 159.699219 153.550781 160.476562 153.742188 C 161.253906 153.933594 162.136719 153.976562 163.101562 153.875 C 164.070312 153.785156 165.15625 153.582031 166.359375 153.273438 L 168.984375 157.820312 C 168.03125 158.140625 167.078125 158.316406 166.109375 158.347656 C 165.15625 158.375 164.113281 158.332031 162.984375 158.1875 L 162.632812 162.730469 C 163.996094 162.90625 165.40625 162.894531 166.8125 162.6875 C 168.234375 162.484375 169.613281 162.117188 170.933594 161.542969 L 172.605469 164.433594 L 175.582031 162.71875 L 173.953125 159.886719 C 174.820312 159.269531 175.523438 158.582031 176.097656 157.847656 C 176.667969 157.117188 177.0625 156.351562 177.3125 155.5625 C 177.5625 154.769531 177.636719 153.976562 177.5625 153.15625 C 177.488281 152.335938 177.210938 151.527344 176.757812 150.734375 Z M 176.757812 150.722656 " fill-opacity="1" fill-rule="evenodd"/><g fill="#03214A" fill-opacity="1"><g transform="translate(90.714471, 291.923456)"><g><path d="M 23.296875 -35.796875 L 23.296875 -28.640625 L 10.765625 -28.640625 L 10.765625 -21.515625 L 22.34375 -21.515625 L 22.34375 -14.359375 L 10.765625 -14.359375 L 10.765625 0 L 2.609375 0 L 2.609375 -35.796875 Z M 23.296875 -35.796875 "/></g></g></g><g fill="#03214A" fill-opacity="1"><g transform="translate(114.449116, 291.923456)"><g><path d="M 3.34375 -34.671875 C 4.238281 -35.566406 5.304688 -36.015625 6.546875 -36.015625 C 7.796875 -36.015625 8.867188 -35.566406 9.765625 -34.671875 C 10.660156 -33.773438 11.109375 -32.703125 11.109375 -31.453125 C 11.109375 -30.210938 10.660156 -29.144531 9.765625 -28.25 C 8.867188 -27.351562 7.796875 -26.90625 6.546875 -26.90625 C 5.304688 -26.90625 4.238281 -27.351562 3.34375 -28.25 C 2.445312 -29.144531 2 -30.210938 2 -31.453125 C 2 -32.703125 2.445312 -33.773438 3.34375 -34.671875 Z M 2.609375 -22.265625 L 2.609375 0 L 10.28125 0 L 10.28125 -22.265625 Z M 2.609375 -22.265625 "/></g></g></g><g fill="#03214A" fill-opacity="1"><g transform="translate(126.685219, 291.923456)"><g><path d="M 2.609375 0 L 2.609375 -22.265625 L 10.28125 -22.265625 L 10.28125 -19.921875 L 10.375 -19.921875 C 12.363281 -21.910156 14.488281 -22.90625 16.75 -22.90625 C 17.84375 -22.90625 18.929688 -22.757812 20.015625 -22.46875 C 21.109375 -22.1875 22.148438 -21.738281 23.140625 -21.125 C 24.140625 -20.519531 24.953125 -19.660156 25.578125 -18.546875 C 26.203125 -17.429688 26.515625 -16.140625 26.515625 -14.671875 L 26.515625 0 L 18.828125 0 L 18.828125 -12.578125 C 18.828125 -13.734375 18.457031 -14.742188 17.71875 -15.609375 C 16.988281 -16.484375 16.03125 -16.921875 14.84375 -16.921875 C 13.6875 -16.921875 12.632812 -16.472656 11.6875 -15.578125 C 10.75 -14.679688 10.28125 -13.679688 10.28125 -12.578125 L 10.28125 0 Z M 2.609375 0 "/></g></g></g><g fill="#03214A" fill-opacity="1"><g transform="translate(154.498587, 291.923456)"><g><path d="M 0.34375 -28.640625 L 0.34375 -35.796875 L 25.515625 -35.796875 L 25.515625 -28.640625 L 17.015625 -28.640625 L 17.015625 0 L 8.859375 0 L 8.859375 -28.640625 Z M 0.34375 -28.640625 "/></g></g></g><g fill="#03214A" fill-opacity="1"><g transform="translate(179.491559, 291.923456)"><g><path d="M 2.609375 0 L 2.609375 -22.265625 L 10.28125 -22.265625 L 10.28125 -19.046875 L 10.375 -19.046875 C 10.425781 -19.160156 10.515625 -19.304688 10.640625 -19.484375 C 10.773438 -19.660156 11.0625 -19.960938 11.5 -20.390625 C 11.9375 -20.828125 12.398438 -21.21875 12.890625 -21.5625 C 13.378906 -21.90625 14.015625 -22.210938 14.796875 -22.484375 C 15.578125 -22.765625 16.375 -22.90625 17.1875 -22.90625 C 18.019531 -22.90625 18.84375 -22.789062 19.65625 -22.5625 C 20.46875 -22.332031 21.0625 -22.101562 21.4375 -21.875 L 22.046875 -21.515625 L 18.828125 -15.015625 C 17.878906 -15.828125 16.550781 -16.234375 14.84375 -16.234375 C 13.914062 -16.234375 13.117188 -16.03125 12.453125 -15.625 C 11.785156 -15.21875 11.3125 -14.722656 11.03125 -14.140625 C 10.757812 -13.566406 10.566406 -13.078125 10.453125 -12.671875 C 10.335938 -12.265625 10.28125 -11.945312 10.28125 -11.71875 L 10.28125 0 Z M 2.609375 0 "/></g></g></g><g fill="#03214A" fill-opacity="1"><g transform="translate(200.232235, 291.923456)"><g><path d="M 4.125 -2.75 C 2.039062 -5.019531 1 -7.800781 1 -11.09375 C 1 -14.394531 2.039062 -17.1875 4.125 -19.46875 C 6.207031 -21.757812 8.851562 -22.90625 12.0625 -22.90625 C 15.007812 -22.90625 17.441406 -21.984375 19.359375 -20.140625 L 19.359375 -22.265625 L 27.03125 -22.265625 L 27.03125 0 L 19.4375 0 L 19.4375 -2.515625 L 19.359375 -2.515625 C 17.441406 -0.398438 15.007812 0.65625 12.0625 0.65625 C 8.851562 0.65625 6.207031 -0.476562 4.125 -2.75 Z M 10.65625 -14.875 C 9.65625 -13.894531 9.15625 -12.640625 9.15625 -11.109375 C 9.15625 -9.578125 9.628906 -8.328125 10.578125 -7.359375 C 11.535156 -6.390625 12.796875 -5.90625 14.359375 -5.90625 C 15.867188 -5.90625 17.109375 -6.394531 18.078125 -7.375 C 19.046875 -8.363281 19.53125 -9.609375 19.53125 -11.109375 C 19.53125 -12.640625 19.03125 -13.894531 18.03125 -14.875 C 17.03125 -15.863281 15.804688 -16.359375 14.359375 -16.359375 C 12.890625 -16.359375 11.65625 -15.863281 10.65625 -14.875 Z M 10.65625 -14.875 "/></g></g></g><g fill="#03214A" fill-opacity="1"><g transform="translate(229.000196, 291.923456)"><g><path d="M 14.453125 -16.625 C 13.003906 -16.625 11.757812 -16.085938 10.71875 -15.015625 C 9.675781 -13.941406 9.15625 -12.65625 9.15625 -11.15625 C 9.15625 -9.625 9.675781 -8.320312 10.71875 -7.25 C 11.757812 -6.175781 13.003906 -5.640625 14.453125 -5.640625 C 15.140625 -5.640625 15.796875 -5.722656 16.421875 -5.890625 C 17.046875 -6.066406 17.503906 -6.242188 17.796875 -6.421875 L 18.1875 -6.6875 L 20.78125 -1.34375 C 20.582031 -1.195312 20.300781 -1.015625 19.9375 -0.796875 C 19.570312 -0.585938 18.742188 -0.296875 17.453125 0.078125 C 16.171875 0.460938 14.796875 0.65625 13.328125 0.65625 C 10.054688 0.65625 7.179688 -0.492188 4.703125 -2.796875 C 2.234375 -5.097656 1 -7.851562 1 -11.0625 C 1 -14.300781 2.234375 -17.082031 4.703125 -19.40625 C 7.179688 -21.738281 10.054688 -22.90625 13.328125 -22.90625 C 14.796875 -22.90625 16.148438 -22.734375 17.390625 -22.390625 C 18.640625 -22.046875 19.523438 -21.695312 20.046875 -21.34375 L 20.78125 -20.828125 L 18.1875 -15.578125 C 17.226562 -16.273438 15.984375 -16.625 14.453125 -16.625 Z M 14.453125 -16.625 "/></g></g></g><g fill="#03214A" fill-opacity="1"><g transform="translate(249.437144, 291.923456)"><g><path d="M 28.03125 -22.265625 L 17.4375 -11.625 L 29.078125 0 L 19.171875 0 L 10.28125 -8.890625 L 10.28125 0 L 2.609375 0 L 2.609375 -37.3125 L 10.28125 -37.3125 L 10.28125 -14.5 L 18.046875 -22.265625 Z M 28.03125 -22.265625 "/></g></g></g></svg>